<?xml version="1.0" encoding="UTF-8" standalone="no"?>
<!DOCTYPE svg  PUBLIC '-//W3C//DTD SVG 1.1//EN'  'http://www.w3.org/Graphics/SVG/1.1/DTD/svg11.dtd'>
<svg id="Layer_1" xmlns="http://www.w3.org/2000/svg" xml:space="preserve" viewBox="0 0 150.2 150" version="1.1" y="0px" x="0px" enable-background="new 0 0 150.2 150">
<g>
	<g id="change1_1"><path d="m75.1 150v-22.9s-75-85.9-75-85.4c-0.1 26.6 1.1 46.3 16.1 63.5 16.5 19.1 42.1 44.8 58.9 44.8" fill="#C4B2D6"/></g>
</g>
<g>
	<g id="change1_2"><path d="m75.1 150c16.8 0 42.1-25.7 58.7-44.7 15-17.2 16.4-37 16.3-63.5 0-0.6-75 85.3-75 85.3v22.9" fill="#C4B2D6"/></g>
</g>
<g>
	<g id="change2_1"><path d="m145.9 64.7c6.8-15.4 5.5-33.6-4.3-47.3-23-32.1-66.5-9.9-66.5-9.9s-43.6-22.3-66.5 9.9c-9.8 13.7-11.2 31.8-4.3 47.3 10.9 24.7 44.9 66.2 70.8 66.2 24.6-0.1 59.9-41.5 70.8-66.2z" fill="#E4CFF9"/></g>
</g>
<g>
	<g id="change3_1"><path d="m56.8 58.4l-6.7-7.8v7.8h-4.2v-18.3h4.2v7.5l6.3-7.5h5.1l-7.4 8.7 8.5 9.6h-5.8z" fill="#A091B0"/></g>
	<g id="change3_2"><path d="m69.4 58.4h-4.2v-18.3h4.2v18.3z" fill="#A091B0"/></g>
	<g id="change3_3"><path d="m85.9 41.5l-1.7 3.3s-1.8-1.3-3.7-1.3c-1.4 0-2.2 0.6-2.2 1.6s1.7 1.8 3.8 2.6c2 0.9 4.3 2.6 4.3 5 0 4.4-3.3 5.9-6.9 5.9-4.3 0-6.9-2.4-6.9-2.4l2.1-3.5s2.4 2.1 4.5 2.1c0.9 0 2.6-0.1 2.6-1.8 0-1.3-1.9-1.9-4.1-3s-3.5-2.8-3.5-4.7c0-3.4 3-5.6 6-5.6 3.4 0.1 5.7 1.8 5.7 1.8z" fill="#A091B0"/></g>
	<g id="change3_4"><path d="m102.2 41.5l-1.7 3.3s-1.8-1.3-3.7-1.3c-1.4 0-2.2 0.6-2.2 1.6s1.7 1.8 3.8 2.6c2 0.9 4.3 2.6 4.3 5 0 4.4-3.3 5.9-6.9 5.9-4.3 0-6.9-2.4-6.9-2.4l2.1-3.5s2.4 2.1 4.5 2.1c0.9 0 2.6-0.1 2.6-1.8 0-1.3-1.9-1.9-4.1-3s-3.5-2.8-3.5-4.7c0-3.4 3-5.6 6-5.6 3.4 0.1 5.7 1.8 5.7 1.8z" fill="#A091B0"/></g>
	<g id="change3_5"><path d="m71.7 77.5h-0.1l-3.7 10.7h-2.5l-3.7-10.7h-0.1l-0.9 10.8h-4.2l1.6-18.3h4.4l4.1 10.5 4.1-10.5h4.4l1.6 18.3h-4.2l-0.8-10.8z" fill="#A091B0"/></g>
	<g id="change3_6"><path d="m90.8 73.7h-6.3v3.6h6v3.7h-6v3.7h6.3v3.7h-10.5v-18.3h10.5v3.6z" fill="#A091B0"/></g>
</g>
</svg>
