<?xml version="1.0" encoding="UTF-8" standalone="no"?>
<!DOCTYPE svg  PUBLIC '-//W3C//DTD SVG 1.1//EN'  'http://www.w3.org/Graphics/SVG/1.1/DTD/svg11.dtd'>
<svg id="Layer_1" xmlns="http://www.w3.org/2000/svg" xml:space="preserve" viewBox="0 0 150 149.8" version="1.1" y="0px" x="0px" enable-background="new 0 0 150 149.8">
<g>
	<g id="change1_1"><path d="m0.1 41.7c-0.1 26.5 1 46.3 16 63.4 16.6 19 42.1 44.6 58.8 44.6v-22.7c0.1 0-74.8-85.8-74.8-85.3z" fill="#E0B8C4"/></g>
</g>
<g id="change1_2"><path d="m149.9 41.7c0-0.6-74.9 85.2-74.9 85.2v22.9c16.8 0 42-25.6 58.6-44.6 15-17.2 16.4-37 16.3-63.5" fill="#E0B8C4"/></g>
<g>
	<g id="change2_1"><path d="m145.7 64.6c6.8-15.4 5.5-33.5-4.3-47.2-22.9-32.1-66.4-9.9-66.4-9.9s-43.5-22.2-66.4 9.8c-9.8 13.8-11.2 31.9-4.3 47.3 10.9 24.7 44.8 66.1 70.7 66.1 24.5-0.1 59.8-41.4 70.7-66.1z" fill="#FFD1DF"/></g>
</g>
<g>
	<g id="change3_1"><path d="m45.9 54.7h6.3v3.6h-10.5v-18.2h4.2v14.6z" fill="#B3929C"/></g>
	<g id="change3_2"><path d="m64.5 39.8c5.1 0 9.2 4.1 9.2 9.4s-3.9 9.5-9.2 9.5c-5.4 0-9.2-4.1-9.2-9.5 0-5.3 4.2-9.4 9.2-9.4zm0 14.9c3.3 0 4.7-2.7 4.7-5.4s-1.5-5.4-4.7-5.4-4.7 2.7-4.7 5.4c0 2.6 1.3 5.4 4.7 5.4z" fill="#B3929C"/></g>
	<g id="change3_3"><path d="m74.7 40.1h4.7l4.6 12 4.6-12h4.7l-7.7 18.2h-3.3l-7.6-18.2z" fill="#B3929C"/></g>
	<g id="change3_4"><path d="m106.3 43.8h-6.3v3.6h6v3.6h-6v3.7h6.3v3.6h-10.4v-18.2h10.4v3.7z" fill="#B3929C"/></g>
	<g id="change3_5"><path d="m50.3 70l3.8 5.8 3.8-5.8h5l-6.7 10v8.2h-4.2v-8.2l-6.7-10h5z" fill="#B3929C"/></g>
	<g id="change3_6"><path d="m73.8 69.6c5.1 0 9.2 4.1 9.2 9.4s-3.9 9.5-9.2 9.5c-5.4 0-9.2-4.1-9.2-9.5 0-5.2 4.2-9.4 9.2-9.4zm0 14.9c3.3 0 4.7-2.7 4.7-5.4s-1.5-5.4-4.7-5.4-4.7 2.7-4.7 5.4 1.3 5.4 4.7 5.4z" fill="#B3929C"/></g>
	<g id="change3_7"><path d="m100.7 81.7c0 4.5-2.5 6.8-7.1 6.8s-7.1-2.3-7.1-6.8v-11.7h4.2v10.5c0 3.1 0.9 3.9 3 3.9 2 0 3-0.9 3-3.9v-10.5h4.2v11.7z" fill="#B3929C"/></g>
</g>
</svg>
